<?xml version="1.0" encoding="UTF-8" standalone="no"?>

<svg xmlns="http://www.w3.org/2000/svg"
    width="200"
    height="200">
    <path
        fill="#3f51b5"
        d="M0 0h200v200H0z" />
    <path
        fill="#304091"
        d="M134.799 57.373c-.696 0-1.264.239-1.703.715-.403.476-.604 1.28-.604 2.416v5.822c-4.98.586-8.971 2.436-11.974 5.549-3.003 3.113-4.506 6.646-4.506 10.602 0 .496.022.977.06 1.445.014.168.038.328.057.492.035.307.071.612.123.906.028.16.065.312.098.467.06.281.125.559.2.828a12.12 12.12 0 00.606 1.66c.105.23.22.452.338.67.08.147.158.294.244.436.135.221.283.433.434.642.082.115.159.235.246.346.21.267.436.521.672.768.046.048.086.1.133.148l.013.016 27.002 27.002c-2.89 2.071-6.695 3.12-11.44 3.12-2.482 0-4.71-.25-6.683-.751l-10.455-10.455a2.324 2.324 0 00-1.703-.713c-.696 0-1.264.255-1.703.767-.403.477-.604 1.265-.604 2.364v6.81L90.305 96.1c-.44-.44-.953-.659-1.54-.659a2.4 2.4 0 00-1.261.329c-.366.22-1.08 1.008-2.143 2.363-2.93 3.735-5.694 5.601-8.295 5.601-.878 0-1.775-.255-2.69-.767-.88-.55-3.17-2.528-6.868-5.934-2.307-2.087-4.193-3.478-5.658-4.174-1.465-.732-2.948-1.1-4.45-1.1-1.794 0-3.644.587-5.548 1.759-1.905 1.135-4.064 3.204-6.48 6.207-.953 1.208-1.43 2.105-1.43 2.691 0 .623.202 1.154.605 1.594l95.99 95.99H200v-84.408l-47.084-47.084c-.055-.055-.117-.097-.176-.145-.046-.037-.09-.08-.138-.113-.077-.053-.162-.093-.245-.135-.05-.026-.099-.056-.152-.078-.091-.037-.189-.06-.287-.086-.052-.013-.1-.033-.154-.043a2.702 2.702 0 00-.485-.043c-.622 0-1.154.22-1.593.659-.44.439-.679 1.117-.715 2.033-.043-.029-.081-.05-.123-.078l-12.52-12.52c-.037-.037-.081-.064-.121-.098-.046-.04-.091-.08-.14-.115a1.888 1.888 0 00-.235-.137c-.044-.022-.087-.047-.133-.066a2.092 2.092 0 00-.29-.09c-.047-.012-.091-.028-.14-.037a2.618 2.618 0 00-.47-.043z" />
    <path
        fill="#f9f9f9"
        d="M88.766 95.44q.88 0 1.539.66.659.659.659 1.538 0 1.923-4.78 6.372-4.778 4.395-8.788 4.395-2.472 0-5-1.374-2.526-1.428-7.195-5.823-3.131-2.966-4.78-3.9-1.592-.933-2.91-.933-1.594 0-3.022.878-1.922 1.1-5.273 5-1.593 1.812-2.088 2.087-.44.274-.988.274-.934 0-1.593-.604-.605-.66-.605-1.593 0-.879 1.428-2.692 3.626-4.504 6.482-6.207 2.857-1.758 5.549-1.758 2.252 0 4.449 1.099 2.197 1.044 5.658 4.175 5.548 5.108 6.866 5.932 1.374.77 2.692.77 3.9 0 8.295-5.604 1.593-2.032 2.142-2.362.55-.33 1.263-.33zM132.492 66.327v-5.823q0-1.703.604-2.417.66-.714 1.703-.714 1.044 0 1.648.714.66.714.66 2.417v5.823q3.735.33 6.152 1.208 2.417.824 5.713 3.022.054-1.374.714-2.033.659-.659 1.593-.659 1.043 0 1.703.714.659.714.659 2.362v6.867q0 1.648-.66 2.362-.659.714-1.702.714-.88 0-1.483-.55-.605-.604-.824-1.977-.33-2.582-3.406-4.67-4.505-2.966-10.602-2.966-6.207 0-10.272 3.626-4.01 3.625-4.01 8.185 0 4.56 3.57 6.976 2.692 1.868 11.316 3.516 8.68 1.593 11.756 3.02 4.394 1.924 6.536 5.22 2.198 3.295 2.198 7.965 0 6.262-4.89 11.04-4.888 4.725-14.062 5.659v13.568q0 1.703-.659 2.417-.604.714-1.648.714t-1.703-.714q-.604-.714-.604-2.417v-13.568q-8.46-.55-14.227-5.493 0 2.417-.22 2.966-.165.494-.769.934-.604.384-1.318.384-.99 0-1.648-.714-.66-.714-.66-2.362v-9.009q0-1.648.605-2.362.659-.769 1.703-.769.988 0 1.703.714.494.495.604 2.198.33 2.91 4.669 5.987 4.394 3.021 11.865 3.021 7.746 0 12.195-3.68 4.45-3.68 4.45-8.57 0-3.24-1.648-5.548-1.648-2.307-5.164-3.79-2.307-.934-9.668-2.307-10.657-2.087-14.777-5.383-4.174-3.296-4.174-9.668 0-5.933 4.504-10.602 4.504-4.67 11.975-5.548z" />
</svg>
